<?xml version="1.0" encoding="UTF-8" standalone="no"?>

<!-- Created with Inkscape (http://www.inkscape.org/) -->

<svg id="svg2" className="icon" xmlns:rdf="http://www.w3.org/1999/02/22-rdf-syntax-ns#" xmlns="http://www.w3.org/2000/svg" height="89.906" width="90.094" version="1.1" xmlns:cc="http://creativecommons.org/ns#" xmlns:dc="http://purl.org/dc/elements/1.1/">

 <metadata id="metadata7">

  <rdf:RDF>

   <cc:Work rdf:about="">

    <dc:format>image/svg+xml</dc:format>

    <dc:type rdf:resource="http://purl.org/dc/dcmitype/StillImage"/>

    <dc:title/>

   </cc:Work>

  </rdf:RDF>

 </metadata>

 <g id="layer1" transform="translate(-242.4375,-646.875)">

  <path id="path3856-5-0-1-6-0" d="m428.57,125.22c0,34.715-28.142,62.857-62.857,62.857s-62.857-28.142-62.857-62.857,28.142-62.857,62.857-62.857,62.857,28.142,62.857,62.857z" stroke-opacity="0" fill-rule="evenodd" transform="matrix(0.68930895,0,0,0.6878885,383.01455,126.22026)" stroke-miterlimit="4" fill="#8c8c8c"/>

  <path id="path3856-5-0-1-6" d="m428.57,125.22c0,34.715-28.142,62.857-62.857,62.857s-62.857-28.142-62.857-62.857,28.142-62.857,62.857-62.857,62.857,28.142,62.857,62.857z" stroke-opacity="0" fill-rule="evenodd" transform="matrix(0.68930895,0,0,0.6878885,302.83598,126.22026)" stroke-miterlimit="4" fill="#8c8c8c"/>

  <path id="path3856-5-0" d="m428.57,125.22c0,34.715-28.142,62.857-62.857,62.857s-62.857-28.142-62.857-62.857,28.142-62.857,62.857-62.857,62.857,28.142,62.857,62.857z" stroke-opacity="0" fill-rule="evenodd" transform="matrix(0.68930895,0,0,0.6878885,33.174664,155.62508)" stroke-miterlimit="4" fill="#8c8c8c"/>

  <path id="path3856-5" d="m428.57,125.22c0,34.715-28.142,62.857-62.857,62.857s-62.857-28.142-62.857-62.857,28.142-62.857,62.857-62.857,62.857,28.142,62.857,62.857z" stroke-opacity="0" fill-rule="evenodd" transform="matrix(0.68930895,0,0,0.6878885,-76.825337,155.62508)" stroke-miterlimit="4" fill="#8c8c8c"/>

  <path id="path3856" d="m428.57,125.22c0,34.715-28.142,62.857-62.857,62.857s-62.857-28.142-62.857-62.857,28.142-62.857,62.857-62.857,62.857,28.142,62.857,62.857z" stroke-opacity="0" fill-rule="evenodd" transform="matrix(0.68930895,0,0,0.6878885,-171.82534,155.62508)" stroke-miterlimit="4" fill="#8c8c8c"/>

  <path id="path3919-8-7" style="text-align:start;" d="m75.228,126.74,10,0,0.0232,19.998,19.977,0.002,0,10-19.977-0.002-0.0232,20.002-10,0,0.0232-20.002-20.023,0.002,0-10,20.023-0.002z" fill-opacity="0.47872338" fill="#e72c00"/>

  <path id="path3919-8-7-8" style="text-align:start;" d="m150.22,126.78,10,0,0.0232,19.998,19.977,0.002,0,10-19.977-0.002-0.0232,20.002-10,0,0.0232-20.002-20.023,0.002,0-10,20.023-0.002z" fill-opacity="0.47872338" fill="#e72c00"/>

  <path id="path3919-8-7-7" style="text-align:start;" d="m145.23,121.74,20,0,0,20,20,0,0,20-20,0,0,20-20,0,0-20-20,0,0-20,20,0z" fill-opacity="0.47872338" fill="#e72c00"/>

  <path id="path3919-8-7-8-4" style="text-align:start;" d="m230.22,126.78,10,0,0.0232,19.998,19.977,0.002,0,10-19.977-0.002-0.0232,20.002-10,0,0.0232-20.002-20.023,0.002,0-10,20.023-0.002z" fill-opacity="0.47872338" fill="#e72c00"/>

  <path id="path3919-8-7-7-2" style="text-align:start;" d="m225.23,121.74,20,0,0,20,20,0,0,20-20,0,0,20-20,0,0-20-20,0,0-20,20,0z" fill-opacity="0.47872338" fill="#e72c00"/>

  <path id="path3919-8-7-7-2-7" style="text-align:start;" d="m220.23,116.74,30,0,0,20,20,0,0,30-20,0,0,20-30,0,0-20-20,0,0-30,20,0z" fill-opacity="0.47872338" fill="#e72c00"/>

  <path id="path3919-8-7-9" style="text-align:start;" d="m75.228,216.74,10,0,0.0232,19.998,19.977,0.002,0,10-19.977-0.002-0.0232,20.002-10,0,0.0232-20.002-20.023,0.002,0-10,20.023-0.002z" fill-opacity="0.47872338" fill="#e72c00"/>

  <path id="path3919-8-7-8-3" style="text-align:start;" fill-opacity="0.47872338" fill="#e72c00" d="m165.18,211.87,0,20-20,0,0,20,20,0,0,20,20,0,0-20,20,0,0-20-20,0,0-20-20,0zm5,5.0312,10,0,0,20,20,0,0,10-20,0,0,20-10,0,0-20-20,0,0-10,20,0,0-20z"/>

  <path id="path3919-8-7-8-4-9" style="text-align:start;" fill-opacity="0.47872338" fill="#e72c00" d="m270.23,206.87,0,20-20,0,0,30,20,0,0,20,30,0,0-20,20,0,0-30-20,0,0-20-30,0zm5,5,20,0,0,20,20,0,0,20-20,0,0,20-20,0,0-20-20,0,0-20,20,0,0-20zm5,5.0312,0,20-20,0,0,10,20,0,0,20,10,0,0-20,20,0,0-10-20,0,0-20-10,0z"/>

  <path id="path3856-5-0-2" d="m277.54,307.55c-23.929,0-43.344,19.37-43.344,43.25s19.414,43.25,43.344,43.25c23.929,0,43.312-19.37,43.312-43.25s-19.383-43.25-43.312-43.25zm-15.031,8.375,30,0,0,20,20,0,0,30-20,0,0,20-30,0,0-20-20,0,0-30,20,0,0-20zm5,5,0,20-20,0,0,20,20,0,0,20,20,0,0-20,20,0,0-20-20,0,0-20-20,0zm5,5.0312,10,0,0,20,20,0,0,10-20,0,0,20-10,0,0-20-20,0,0-10,20,0,0-20z" stroke-opacity="0" fill-rule="evenodd" stroke-miterlimit="4" fill="#8c8c8c"/>

  <path id="path3856-5-8" d="m167.54,307.55c-23.929,0-43.344,19.37-43.344,43.25s19.414,43.25,43.344,43.25c23.929,0,43.312-19.37,43.312-43.25s-19.383-43.25-43.312-43.25zm-10.094,13.375,20,0,0,20,20,0,0,20-20,0,0,20-20,0,0-20-20,0,0-20,20,0,0-20zm5,5.0312,0,20-20,0,0,10,20,0,0,20,10,0,0-20,20,0,0-10-20,0,0-20-10,0z" stroke-opacity="0" fill-rule="evenodd" stroke-miterlimit="4" fill="#8c8c8c"/>

  <path id="path3856-6" d="m72.537,307.55c-23.929,0-43.344,19.37-43.344,43.25s19.414,43.25,43.344,43.25c23.929,0,43.313-19.37,43.313-43.25s-19.383-43.25-43.313-43.25zm-5.0312,18.219,10,0,0.03125,20,19.969,0,0,10-19.969,0-0.03125,20-10,0,0.03125-20-20.031,0,0-10,20.031,0-0.03125-20z" stroke-opacity="0" fill-rule="evenodd" stroke-miterlimit="4" fill="#8c8c8c"/>

  <path id="path3919-8-7-86" style="text-align:start;" d="m475,137.36,10,0,0.0734,0.0457,19.977,0.002,0,10-19.977-0.002-0.0734-0.0457-10,0,0.0734,0.0457-20.023,0.002,0-10,20.023-0.002z" fill-opacity="0.47872338" fill="#e72c00"/>

  <path id="path3919-8-7-8-5" style="text-align:start;" d="m550,137.36,10,0,0.0633,0.0854,19.977,0.002,0,10-19.977-0.002-0.0633-0.0854-10,0,0.0633,0.0854-20.023,0.002,0-10,20.023-0.002z" fill-opacity="0.47872338" fill="#e72c00"/>

  <path id="path3919-8-7-7-0" style="text-align:start;" d="m545,132.36,20,0,0.0502,0.0477,20,0,0,20-20,0-0.0502-0.0477-20,0,0.0502,0.0477-20,0,0-20,20,0z" fill-opacity="0.47872338" fill="#e72c00"/>

  <path id="path3919-8-7-8-4-90" style="text-align:start;" d="m630,137.36,10,0,0.0633,0.0854,19.977,0.002,0,10-19.977-0.002-0.0633-0.0854-10,0,0.0633,0.0854-20.023,0.002,0-10,20.023-0.002z" fill-opacity="0.47872338" fill="#e72c00"/>

  <path id="path3919-8-7-7-2-0" style="text-align:start;" d="m625,132.36,20,0,0.0502,0.0477,20,0,0,20-20,0-0.0502-0.0477-20,0,0.0502,0.0477-20,0,0-20,20,0z" fill-opacity="0.47872338" fill="#e72c00"/>

  <path id="path3919-8-7-7-2-7-6" style="text-align:start;" d="m620,127.36,30,0,0.0502,0.0477,20,0,0,30-20,0-0.0502-0.0477-30,0,0.0502,0.0477-20,0,0-30,20,0z" fill-opacity="0.47872338" fill="#e72c00"/>

  <path id="path3856-5-0-1" d="m428.57,125.22c0,34.715-28.142,62.857-62.857,62.857s-62.857-28.142-62.857-62.857,28.142-62.857,62.857-62.857,62.857,28.142,62.857,62.857z" stroke-opacity="0" fill-rule="evenodd" transform="matrix(0.68930895,0,0,0.6878885,228.38672,126.44832)" stroke-miterlimit="4" fill="#8c8c8c"/>

  <path id="path3919-8-7-86-3" style="text-align:start;" d="m475.04,207.35,10,0,0.0734,0.0457,19.977,0.002,0,10-19.977-0.002-0.0734-0.0457-10,0,0.0734,0.0457-20.023,0.002,0-10,20.023-0.002z" fill-opacity="0.47872338" fill="#e72c00"/>

  <path id="path3919-8-7-8-5-8" style="text-align:start;" d="m550.04,207.35,10,0,0.0633,0.0854,19.977,0.002,0,10-19.977-0.002-0.0633-0.0854-10,0,0.0633,0.0854-20.023,0.002,0-10,20.023-0.002z" fill-opacity="0.47872338" fill="#e72c00"/>

  <path id="path3919-8-7-7-0-9" style="text-align:start;" d="m545.04,202.35,20,0,0.0502,0.0477,20,0,0,20-20,0-0.0502-0.0477-20,0,0.0502,0.0477-20,0,0-20,20,0z" fill-opacity="0.47872338" fill="#e72c00"/>

  <path id="path3919-8-7-8-4-90-3" style="text-align:start;" d="m630.04,207.35,10,0,0.0633,0.0854,19.977,0.002,0,10-19.977-0.002-0.0633-0.0854-10,0,0.0633,0.0854-20.023,0.002,0-10,20.023-0.002z" fill-opacity="0.47872338" fill="#e72c00"/>

  <path id="path3919-8-7-7-2-0-4" style="text-align:start;" d="m625.04,202.35,20,0,0.0502,0.0477,20,0,0,20-20,0-0.0502-0.0477-20,0,0.0502,0.0477-20,0,0-20,20,0z" fill-opacity="0.47872338" fill="#e72c00"/>

  <path id="path3919-8-7-7-2-7-6-4" style="text-align:start;" d="m620.04,197.35,30,0,0.0502,0.0477,20,0,0,30-20,0-0.0502-0.0477-30,0,0.0502,0.0477-20,0,0-30,20,0z" fill-opacity="0.47872338" fill="#e72c00"/>

  <path id="path3856-5-0-1-6-0-6" d="m275.93,405.85c-23.929,0-43.312,19.339-43.312,43.219s19.383,43.25,43.312,43.25,43.344-19.37,43.344-43.25-19.414-43.219-43.344-43.219zm-15.062,28.219,30,0,0.0625,0.0625,20,0,0,30-20,0-0.0625-0.0625-30,0,0.0625,0.0625-20,0,0-30,20,0-0.0625-0.0625zm5,5,0.0625,0.0625-20,0,0,20,20,0-0.0625-0.0625,20,0,0.0625,0.0625,20,0,0-20-20,0-0.0625-0.0625-20,0zm5,5,10,0,0.0625,0.0937,20,0,0,10-20,0-0.0625-0.0937-10,0,0.0625,0.0937-20,0,0-10,20,0-0.0625-0.0937z" stroke-opacity="0" fill-rule="evenodd" stroke-miterlimit="4" fill="#8c8c8c"/>

  <path id="path3856-5-0-1-6-6" d="m161.43,406.35c-23.929,0-43.344,19.339-43.344,43.219s19.414,43.25,43.344,43.25c23.929,0,43.312-19.37,43.312-43.25s-19.383-43.219-43.312-43.219zm-9.9062,33.219,20,0,0.0625,0.0625,20,0,0,20-20,0-0.0625-0.0625-20,0,0.0625,0.0625-20,0,0-20,20,0-0.0625-0.0625zm5,5,0.0625,0.0937-20,0,0,10,20,0-0.0625-0.0937,10,0,0.0625,0.0937,20,0,0-10-20,0-0.0625-0.0937-10,0z" stroke-opacity="0" fill-rule="evenodd" stroke-miterlimit="4" fill="#8c8c8c"/>

  <path id="path3856-5-0-1-1" d="m66.761,409.6c-23.929,0-43.312,19.37-43.312,43.25s19.383,43.219,43.312,43.219,43.344-19.339,43.344-43.219-19.414-43.25-43.344-43.25zm-5.4375,38,10,0,0.09375,0.0625,19.969,0,0,10-19.969,0-0.09375-0.0625-10,0,0.09375,0.0625-20.031,0,0-10,20.031,0-0.09375-0.0625z" stroke-opacity="0" fill-rule="evenodd" stroke-miterlimit="4" fill="#8c8c8c"/>

  <path id="path3856-5-0-2-8" d="m676.03,647.55c-23.929,0-43.344,19.37-43.344,43.25s19.414,43.25,43.344,43.25c23.929,0,43.312-19.37,43.312-43.25s-19.383-43.25-43.312-43.25zm-15.031,8.375,30,0,0,20,20,0,0,30-20,0,0,20-30,0,0-20-20,0,0-30,20,0,0-20zm5,5,0,20-20,0,0,20,20,0,0,20,20,0,0-20,20,0,0-20-20,0,0-20-20,0zm5,5.0312,10,0,0,20,20,0,0,10-20,0,0,20-10,0,0-20-20,0,0-10,20,0,0-20z" stroke-opacity="0" fill-rule="evenodd" stroke-miterlimit="4" fill="#8c8c8c"/>

  <path id="path3856-5-8-8" d="m566.03,647.55c-23.929,0-43.344,19.37-43.344,43.25s19.414,43.25,43.344,43.25c23.929,0,43.312-19.37,43.312-43.25s-19.383-43.25-43.312-43.25zm-10.094,13.375,20,0,0,20,20,0,0,20-20,0,0,20-20,0,0-20-20,0,0-20,20,0,0-20zm5,5.0312,0,20-20,0,0,10,20,0,0,20,10,0,0-20,20,0,0-10-20,0,0-20-10,0z" stroke-opacity="0" fill-rule="evenodd" stroke-miterlimit="4" fill="#8c8c8c"/>

  <path id="path3856-6-2" d="m471.03,647.55c-23.929,0-43.344,19.37-43.344,43.25s19.414,43.25,43.344,43.25c23.929,0,43.312-19.37,43.312-43.25s-19.383-43.25-43.312-43.25zm-5.0312,18.219,10,0,0.0312,20,19.969,0,0,10-19.969,0-0.0312,20-10,0,0.0312-20-20.031,0,0-10,20.031,0-0.0312-20z" stroke-opacity="0" fill-rule="evenodd" stroke-miterlimit="4" fill="#8c8c8c"/>

  <path id="path3856-5-0-1-6-0-6-9" d="m72.38,648.87c-23.929,0-43.312,19.339-43.312,43.219s19.383,43.25,43.312,43.25,43.344-19.37,43.344-43.25-19.414-43.219-43.344-43.219zm-15.062,28.219,30,0,0.0625,0.0625,20,0,0,30-20,0-0.0625-0.0625-30,0,0.0625,0.0625-20,0,0-30,20,0-0.0625-0.0625zm5,5,0.0625,0.0625-20,0,0,20,20,0-0.0625-0.0625,20,0,0.0625,0.0625,20,0,0-20-20,0-0.0625-0.0625-20,0zm5,5,10,0,0.0625,0.0937,20,0,0,10-20,0-0.0625-0.0937-10,0,0.0625,0.0937-20,0,0-10,20,0-0.0625-0.0937z" stroke-opacity="0" fill-rule="evenodd" stroke-miterlimit="4" fill="#8c8c8c"/>

  <path id="path3856-5-0-1-6-6-1" d="m177.08,645.34c-23.929,0-43.344,19.339-43.344,43.219s19.414,43.25,43.344,43.25c23.929,0,43.312-19.37,43.312-43.25s-19.383-43.219-43.312-43.219zm-9.9062,33.219,20,0,0.0625,0.0625,20,0,0,20-20,0-0.0625-0.0625-20,0,0.0625,0.0625-20,0,0-20,20,0-0.0625-0.0625zm5,5,0.0625,0.0937-20,0,0,10,20,0-0.0625-0.0937,10,0,0.0625,0.0937,20,0,0-10-20,0-0.0625-0.0937-10,0z" stroke-opacity="0" fill-rule="evenodd" stroke-miterlimit="4" fill="#8c8c8c"/>

  <path id="path3856-5-0-1-1-3" d="m287.47,648.59c-23.929,0-43.312,19.37-43.312,43.25s19.383,43.219,43.312,43.219,43.344-19.339,43.344-43.219-19.414-43.25-43.344-43.25zm-5.4375,38,10,0,0.0937,0.0625,19.969,0,0,10-19.969,0-0.0937-0.0625-10,0,0.0937,0.0625-20.031,0,0-10,20.031,0-0.0937-0.0625z" stroke-opacity="0" fill-rule="evenodd" stroke-miterlimit="4" fill="#8c8c8c"/>

 </g>

</svg>

