<?xml version="1.0" encoding="UTF-8" standalone="no"?>
<!-- Created with Inkscape (http://www.inkscape.org/) -->

<svg
   xmlns:dc="http://purl.org/dc/elements/1.1/"
   xmlns:cc="http://creativecommons.org/ns#"
   xmlns:rdf="http://www.w3.org/1999/02/22-rdf-syntax-ns#"
   xmlns:svg="http://www.w3.org/2000/svg"
   xmlns="http://www.w3.org/2000/svg"
   xmlns:sodipodi="http://sodipodi.sourceforge.net/DTD/sodipodi-0.dtd"
   xmlns:inkscape="http://www.inkscape.org/namespaces/inkscape"
   width="90.09375"
   height="89.9375"
   id="svg2"
   version="1.1"
   inkscape:version="0.48.4 r9939"
   sodipodi:docname="plus2.svg">
  <defs
     id="defs4" />
  <sodipodi:namedview
     id="base"
     pagecolor="#ffffff"
     bordercolor="#666666"
     borderopacity="1.0"
     inkscape:pageopacity="0.0"
     inkscape:pageshadow="2"
     inkscape:zoom="0.98994949"
     inkscape:cx="-284.8208"
     inkscape:cy="103.75619"
     inkscape:document-units="px"
     inkscape:current-layer="layer1"
     showgrid="true"
     inkscape:snap-global="true"
     inkscape:window-width="1920"
     inkscape:window-height="1017"
     inkscape:window-x="-8"
     inkscape:window-y="-8"
     inkscape:window-maximized="1"
     fit-margin-top="0"
     fit-margin-left="0"
     fit-margin-right="0"
     fit-margin-bottom="0">
    <inkscape:grid
       type="xygrid"
       id="grid3939"
       empspacing="5"
       visible="true"
       enabled="true"
       snapvisiblegridlinesonly="true"
       originx="-630.96875px"
       originy="-316.58093px" />
  </sodipodi:namedview>
  <metadata
     id="metadata7">
    <rdf:RDF>
      <cc:Work
         rdf:about="">
        <dc:format>image/svg+xml</dc:format>
        <dc:type
           rdf:resource="http://purl.org/dc/dcmitype/StillImage" />
        <dc:title></dc:title>
      </cc:Work>
    </rdf:RDF>
  </metadata>
  <g
     inkscape:label="Layer 1"
     inkscape:groupmode="layer"
     id="layer1"
     transform="translate(-630.96875,-645.84375)">
    <path
       sodipodi:type="arc"
       style="fill:#8c8c8c;fill-opacity:1;fill-rule:evenodd;stroke:#1d1309;stroke-width:5;stroke-linecap:round;stroke-linejoin:bevel;stroke-miterlimit:4;stroke-opacity:0;stroke-dasharray:none;stroke-dashoffset:0"
       id="path3856-5-0-1-6-0"
       sodipodi:cx="365.71429"
       sodipodi:cy="125.21932"
       sodipodi:rx="62.857143"
       sodipodi:ry="62.857143"
       d="m 428.57144,125.21932 c 0,34.71504 -28.1421,62.85715 -62.85715,62.85715 -34.71504,0 -62.85714,-28.14211 -62.85714,-62.85715 0,-34.71504 28.1421,-62.857141 62.85714,-62.857141 34.71505,0 62.85715,28.142101 62.85715,62.857141 z"
       transform="matrix(0.68930895,0,0,0.6878885,383.01455,126.22026)" />
    <path
       sodipodi:type="arc"
       style="fill:#8c8c8c;fill-opacity:1;fill-rule:evenodd;stroke:#1d1309;stroke-width:5;stroke-linecap:round;stroke-linejoin:bevel;stroke-miterlimit:4;stroke-opacity:0;stroke-dasharray:none;stroke-dashoffset:0"
       id="path3856-5-0-1-6"
       sodipodi:cx="365.71429"
       sodipodi:cy="125.21932"
       sodipodi:rx="62.857143"
       sodipodi:ry="62.857143"
       d="m 428.57144,125.21932 c 0,34.71504 -28.1421,62.85715 -62.85715,62.85715 -34.71504,0 -62.85714,-28.14211 -62.85714,-62.85715 0,-34.71504 28.1421,-62.857141 62.85714,-62.857141 34.71505,0 62.85715,28.142101 62.85715,62.857141 z"
       transform="matrix(0.68930895,0,0,0.6878885,302.83598,126.22026)" />
    <path
       sodipodi:type="arc"
       style="fill:#8c8c8c;fill-opacity:1;fill-rule:evenodd;stroke:#1d1309;stroke-width:5;stroke-linecap:round;stroke-linejoin:bevel;stroke-miterlimit:4;stroke-opacity:0;stroke-dasharray:none;stroke-dashoffset:0"
       id="path3856-5-0"
       sodipodi:cx="365.71429"
       sodipodi:cy="125.21932"
       sodipodi:rx="62.857143"
       sodipodi:ry="62.857143"
       d="m 428.57144,125.21932 c 0,34.71504 -28.1421,62.85715 -62.85715,62.85715 -34.71504,0 -62.85714,-28.14211 -62.85714,-62.85715 0,-34.71504 28.1421,-62.857141 62.85714,-62.857141 34.71505,0 62.85715,28.142101 62.85715,62.857141 z"
       transform="matrix(0.68930895,0,0,0.6878885,33.174664,155.62508)" />
    <path
       sodipodi:type="arc"
       style="fill:#8c8c8c;fill-opacity:1;fill-rule:evenodd;stroke:#1d1309;stroke-width:5;stroke-linecap:round;stroke-linejoin:bevel;stroke-miterlimit:4;stroke-opacity:0;stroke-dasharray:none;stroke-dashoffset:0"
       id="path3856-5"
       sodipodi:cx="365.71429"
       sodipodi:cy="125.21932"
       sodipodi:rx="62.857143"
       sodipodi:ry="62.857143"
       d="m 428.57144,125.21932 c 0,34.71504 -28.1421,62.85715 -62.85715,62.85715 -34.71504,0 -62.85714,-28.14211 -62.85714,-62.85715 0,-34.71504 28.1421,-62.857141 62.85714,-62.857141 34.71505,0 62.85715,28.142101 62.85715,62.857141 z"
       transform="matrix(0.68930895,0,0,0.6878885,-76.825337,155.62508)" />
    <path
       sodipodi:type="arc"
       style="fill:#8c8c8c;fill-opacity:1;fill-rule:evenodd;stroke:#1d1309;stroke-width:5;stroke-linecap:round;stroke-linejoin:bevel;stroke-miterlimit:4;stroke-opacity:0;stroke-dasharray:none;stroke-dashoffset:0"
       id="path3856"
       sodipodi:cx="365.71429"
       sodipodi:cy="125.21932"
       sodipodi:rx="62.857143"
       sodipodi:ry="62.857143"
       d="m 428.57144,125.21932 c 0,34.71504 -28.1421,62.85715 -62.85715,62.85715 -34.71504,0 -62.85714,-28.14211 -62.85714,-62.85715 0,-34.71504 28.1421,-62.857141 62.85714,-62.857141 34.71505,0 62.85715,28.142101 62.85715,62.857141 z"
       transform="matrix(0.68930895,0,0,0.6878885,-171.82534,155.62508)" />
    <path
       inkscape:connector-curvature="0"
       d="m 75.228304,126.74282 10,0 0.0232,19.99802 19.976786,0.002 0,10 -19.976786,-0.002 -0.0232,20.00198 -10,0 0.0232,-20.00198 -20.02321,0.002 0,-10 20.02321,-0.002 z"
       style="font-size:100px;font-style:normal;font-variant:normal;font-weight:normal;font-stretch:normal;text-align:start;line-height:125%;letter-spacing:0px;word-spacing:0px;writing-mode:lr-tb;text-anchor:start;fill:#e72c00;fill-opacity:0.47872338;stroke:none;font-family:Gill Sans Nova;-inkscape-font-specification:Gill Sans Nova"
       id="path3919-8-7"
       sodipodi:nodetypes="ccccccccccccc" />
    <path
       inkscape:connector-curvature="0"
       d="m 150.21821,126.78249 10,0 0.0232,19.99802 19.97679,0.002 0,10 -19.97679,-0.002 -0.0232,20.00198 -10,0 0.0232,-20.00198 -20.02321,0.002 0,-10 20.02321,-0.002 z"
       style="font-size:100px;font-style:normal;font-variant:normal;font-weight:normal;font-stretch:normal;text-align:start;line-height:125%;letter-spacing:0px;word-spacing:0px;writing-mode:lr-tb;text-anchor:start;fill:#e72c00;fill-opacity:0.47872338;stroke:none;font-family:Gill Sans Nova;-inkscape-font-specification:Gill Sans Nova"
       id="path3919-8-7-8"
       sodipodi:nodetypes="ccccccccccccc" />
    <path
       inkscape:connector-curvature="0"
       d="m 145.2283,121.74282 20,0 0,20 20,0 0,20 -20,0 0,20 -20,0 0,-20 -20,0 0,-20 20,0 z"
       style="font-size:100px;font-style:normal;font-variant:normal;font-weight:normal;font-stretch:normal;text-align:start;line-height:125%;letter-spacing:0px;word-spacing:0px;writing-mode:lr-tb;text-anchor:start;fill:#e72c00;fill-opacity:0.47872338;stroke:none;font-family:Gill Sans Nova;-inkscape-font-specification:Gill Sans Nova"
       id="path3919-8-7-7"
       sodipodi:nodetypes="ccccccccccccc" />
    <path
       inkscape:connector-curvature="0"
       d="m 230.21821,126.78249 10,0 0.0232,19.99802 19.97679,0.002 0,10 -19.97679,-0.002 -0.0232,20.00198 -10,0 0.0232,-20.00198 -20.02321,0.002 0,-10 20.02321,-0.002 z"
       style="font-size:100px;font-style:normal;font-variant:normal;font-weight:normal;font-stretch:normal;text-align:start;line-height:125%;letter-spacing:0px;word-spacing:0px;writing-mode:lr-tb;text-anchor:start;fill:#e72c00;fill-opacity:0.47872338;stroke:none;font-family:Gill Sans Nova;-inkscape-font-specification:Gill Sans Nova"
       id="path3919-8-7-8-4"
       sodipodi:nodetypes="ccccccccccccc" />
    <path
       inkscape:connector-curvature="0"
       d="m 225.2283,121.74282 20,0 0,20 20,0 0,20 -20,0 0,20 -20,0 0,-20 -20,0 0,-20 20,0 z"
       style="font-size:100px;font-style:normal;font-variant:normal;font-weight:normal;font-stretch:normal;text-align:start;line-height:125%;letter-spacing:0px;word-spacing:0px;writing-mode:lr-tb;text-anchor:start;fill:#e72c00;fill-opacity:0.47872338;stroke:none;font-family:Gill Sans Nova;-inkscape-font-specification:Gill Sans Nova"
       id="path3919-8-7-7-2"
       sodipodi:nodetypes="ccccccccccccc" />
    <path
       inkscape:connector-curvature="0"
       d="m 220.2283,116.74282 30,0 0,20 20,0 0,30 -20,0 0,20 -30,0 0,-20 -20,0 0,-30 20,0 z"
       style="font-size:100px;font-style:normal;font-variant:normal;font-weight:normal;font-stretch:normal;text-align:start;line-height:125%;letter-spacing:0px;word-spacing:0px;writing-mode:lr-tb;text-anchor:start;fill:#e72c00;fill-opacity:0.47872338;stroke:none;font-family:Gill Sans Nova;-inkscape-font-specification:Gill Sans Nova"
       id="path3919-8-7-7-2-7"
       sodipodi:nodetypes="ccccccccccccc" />
    <path
       inkscape:connector-curvature="0"
       d="m 75.228304,216.74282 10,0 0.0232,19.99802 19.976786,0.002 0,10 -19.976786,-0.002 -0.0232,20.00198 -10,0 0.0232,-20.00198 -20.02321,0.002 0,-10 20.02321,-0.002 z"
       style="font-size:100px;font-style:normal;font-variant:normal;font-weight:normal;font-stretch:normal;text-align:start;line-height:125%;letter-spacing:0px;word-spacing:0px;writing-mode:lr-tb;text-anchor:start;fill:#e72c00;fill-opacity:0.47872338;stroke:none;font-family:Gill Sans Nova;-inkscape-font-specification:Gill Sans Nova"
       id="path3919-8-7-9"
       sodipodi:nodetypes="ccccccccccccc" />
    <path
       style="font-size:100px;font-style:normal;font-variant:normal;font-weight:normal;font-stretch:normal;text-align:start;line-height:125%;letter-spacing:0px;word-spacing:0px;writing-mode:lr-tb;text-anchor:start;fill:#e72c00;fill-opacity:0.47872338;stroke:none;font-family:Gill Sans Nova;-inkscape-font-specification:Gill Sans Nova"
       d="m 165.17881,211.87223 0,20 -20,0 0,20 20,0 0,20 20,0 0,-20 20,0 0,-20 -20,0 0,-20 -20,0 z m 5,5.03125 10,0 0,20 20,0 0,10 -20,0 0,20 -10,0 0,-20 -20,0 0,-10 20,0 0,-20 z"
       id="path3919-8-7-8-3"
       inkscape:connector-curvature="0" />
    <path
       style="font-size:100px;font-style:normal;font-variant:normal;font-weight:normal;font-stretch:normal;text-align:start;line-height:125%;letter-spacing:0px;word-spacing:0px;writing-mode:lr-tb;text-anchor:start;fill:#e72c00;fill-opacity:0.47872338;stroke:none;font-family:Gill Sans Nova;-inkscape-font-specification:Gill Sans Nova"
       d="m 270.23085,206.87223 0,20 -20,0 0,30 20,0 0,20 30,0 0,-20 20,0 0,-30 -20,0 0,-20 -30,0 z m 5,5 20,0 0,20 20,0 0,20 -20,0 0,20 -20,0 0,-20 -20,0 0,-20 20,0 0,-20 z m 5,5.03125 0,20 -20,0 0,10 20,0 0,20 10,0 0,-20 20,0 0,-10 -20,0 0,-20 -10,0 z"
       id="path3919-8-7-8-4-9"
       inkscape:connector-curvature="0" />
    <path
       style="fill:#8c8c8c;fill-opacity:1;fill-rule:evenodd;stroke:#1d1309;stroke-width:3.44299173;stroke-linecap:round;stroke-linejoin:bevel;stroke-miterlimit:4;stroke-opacity:0;stroke-dasharray:none;stroke-dashoffset:0"
       d="m 277.53733,307.55259 c -23.92939,0 -43.34375,19.36992 -43.34375,43.25 0,23.88008 19.41436,43.25 43.34375,43.25 23.92939,0 43.3125,-19.36992 43.3125,-43.25 0,-23.88008 -19.38311,-43.25 -43.3125,-43.25 z m -15.03125,8.375 30,0 0,20 20,0 0,30 -20,0 0,20 -30,0 0,-20 -20,0 0,-30 20,0 0,-20 z m 5,5 0,20 -20,0 0,20 20,0 0,20 20,0 0,-20 20,0 0,-20 -20,0 0,-20 -20,0 z m 5,5.03125 10,0 0,20 20,0 0,10 -20,0 0,20 -10,0 0,-20 -20,0 0,-10 20,0 0,-20 z"
       id="path3856-5-0-2"
       inkscape:connector-curvature="0" />
    <path
       style="fill:#8c8c8c;fill-opacity:1;fill-rule:evenodd;stroke:#1d1309;stroke-width:3.44299173;stroke-linecap:round;stroke-linejoin:bevel;stroke-miterlimit:4;stroke-opacity:0;stroke-dasharray:none;stroke-dashoffset:0"
       d="m 167.53734,307.55259 c -23.92939,0 -43.34375,19.36992 -43.34375,43.25 0,23.88008 19.41436,43.25 43.34375,43.25 23.92939,0 43.31249,-19.36992 43.31249,-43.25 0,-23.88008 -19.3831,-43.25 -43.31249,-43.25 z m -10.09375,13.375 20,0 0,20 19.99999,0 0,20 -19.99999,0 0,20 -20,0 0,-20 -20,0 0,-20 20,0 0,-20 z m 5,5.03125 0,20 -20,0 0,10 20,0 0,20 10,0 0,-20 20,0 0,-10 -20,0 0,-20 -10,0 z"
       id="path3856-5-8"
       inkscape:connector-curvature="0" />
    <path
       style="fill:#8c8c8c;fill-opacity:1;fill-rule:evenodd;stroke:#1d1309;stroke-width:3.44299173;stroke-linecap:round;stroke-linejoin:bevel;stroke-miterlimit:4;stroke-opacity:0;stroke-dasharray:none;stroke-dashoffset:0"
       d="m 72.537338,307.55259 c -23.929391,0 -43.343751,19.36992 -43.343751,43.25 0,23.88008 19.41436,43.25 43.343751,43.25 23.92939,0 43.312502,-19.36992 43.312502,-43.25 0,-23.88008 -19.383112,-43.25 -43.312502,-43.25 z m -5.03125,18.21875 10,0 0.03125,20 19.96875,0 0,10 -19.96875,0 -0.03125,20 -10,0 0.03125,-20 -20.031251,0 0,-10 20.031251,0 -0.03125,-20 z"
       id="path3856-6"
       inkscape:connector-curvature="0" />
    <path
       inkscape:connector-curvature="0"
       d="m 475,137.36218 10,0 0.0734,0.0457 19.97679,0.002 0,10 -19.97679,-0.002 -0.0734,-0.0457 -10,0 0.0734,0.0457 -20.02321,0.002 0,-10 20.02321,-0.002 z"
       style="font-size:100px;font-style:normal;font-variant:normal;font-weight:normal;font-stretch:normal;text-align:start;line-height:125%;letter-spacing:0px;word-spacing:0px;writing-mode:lr-tb;text-anchor:start;fill:#e72c00;fill-opacity:0.47872338;stroke:none;font-family:Gill Sans Nova;-inkscape-font-specification:Gill Sans Nova"
       id="path3919-8-7-86"
       sodipodi:nodetypes="ccccccccccccc" />
    <path
       inkscape:connector-curvature="0"
       d="m 550,137.36218 10,0 0.0633,0.0854 19.97679,0.002 0,10 -19.97679,-0.002 -0.0633,-0.0854 -10,0 0.0633,0.0854 -20.02321,0.002 0,-10 20.02321,-0.002 z"
       style="font-size:100px;font-style:normal;font-variant:normal;font-weight:normal;font-stretch:normal;text-align:start;line-height:125%;letter-spacing:0px;word-spacing:0px;writing-mode:lr-tb;text-anchor:start;fill:#e72c00;fill-opacity:0.47872338;stroke:none;font-family:Gill Sans Nova;-inkscape-font-specification:Gill Sans Nova"
       id="path3919-8-7-8-5"
       sodipodi:nodetypes="ccccccccccccc" />
    <path
       inkscape:connector-curvature="0"
       d="m 545,132.36218 20,0 0.0502,0.0477 20,0 0,20 -20,0 -0.0502,-0.0477 -20,0 0.0502,0.0477 -20,0 0,-20 20,0 z"
       style="font-size:100px;font-style:normal;font-variant:normal;font-weight:normal;font-stretch:normal;text-align:start;line-height:125%;letter-spacing:0px;word-spacing:0px;writing-mode:lr-tb;text-anchor:start;fill:#e72c00;fill-opacity:0.47872338;stroke:none;font-family:Gill Sans Nova;-inkscape-font-specification:Gill Sans Nova"
       id="path3919-8-7-7-0"
       sodipodi:nodetypes="ccccccccccccc" />
    <path
       inkscape:connector-curvature="0"
       d="m 630,137.36218 10,0 0.0633,0.0854 19.97679,0.002 0,10 -19.97679,-0.002 -0.0633,-0.0854 -10,0 0.0633,0.0854 -20.02321,0.002 0,-10 20.02321,-0.002 z"
       style="font-size:100px;font-style:normal;font-variant:normal;font-weight:normal;font-stretch:normal;text-align:start;line-height:125%;letter-spacing:0px;word-spacing:0px;writing-mode:lr-tb;text-anchor:start;fill:#e72c00;fill-opacity:0.47872338;stroke:none;font-family:Gill Sans Nova;-inkscape-font-specification:Gill Sans Nova"
       id="path3919-8-7-8-4-90"
       sodipodi:nodetypes="ccccccccccccc" />
    <path
       inkscape:connector-curvature="0"
       d="m 625,132.36218 20,0 0.0502,0.0477 20,0 0,20 -20,0 -0.0502,-0.0477 -20,0 0.0502,0.0477 -20,0 0,-20 20,0 z"
       style="font-size:100px;font-style:normal;font-variant:normal;font-weight:normal;font-stretch:normal;text-align:start;line-height:125%;letter-spacing:0px;word-spacing:0px;writing-mode:lr-tb;text-anchor:start;fill:#e72c00;fill-opacity:0.47872338;stroke:none;font-family:Gill Sans Nova;-inkscape-font-specification:Gill Sans Nova"
       id="path3919-8-7-7-2-0"
       sodipodi:nodetypes="ccccccccccccc" />
    <path
       inkscape:connector-curvature="0"
       d="m 620,127.36218 30,0 0.0502,0.0477 20,0 0,30 -20,0 -0.0502,-0.0477 -30,0 0.0502,0.0477 -20,0 0,-30 20,0 z"
       style="font-size:100px;font-style:normal;font-variant:normal;font-weight:normal;font-stretch:normal;text-align:start;line-height:125%;letter-spacing:0px;word-spacing:0px;writing-mode:lr-tb;text-anchor:start;fill:#e72c00;fill-opacity:0.47872338;stroke:none;font-family:Gill Sans Nova;-inkscape-font-specification:Gill Sans Nova"
       id="path3919-8-7-7-2-7-6"
       sodipodi:nodetypes="ccccccccccccc" />
    <path
       sodipodi:type="arc"
       style="fill:#8c8c8c;fill-opacity:1;fill-rule:evenodd;stroke:#1d1309;stroke-width:5;stroke-linecap:round;stroke-linejoin:bevel;stroke-miterlimit:4;stroke-opacity:0;stroke-dasharray:none;stroke-dashoffset:0"
       id="path3856-5-0-1"
       sodipodi:cx="365.71429"
       sodipodi:cy="125.21932"
       sodipodi:rx="62.857143"
       sodipodi:ry="62.857143"
       d="m 428.57144,125.21932 c 0,34.71504 -28.1421,62.85715 -62.85715,62.85715 -34.71504,0 -62.85714,-28.14211 -62.85714,-62.85715 0,-34.71504 28.1421,-62.857141 62.85714,-62.857141 34.71505,0 62.85715,28.142101 62.85715,62.857141 z"
       transform="matrix(0.68930895,0,0,0.6878885,228.38672,126.44832)" />
    <path
       inkscape:connector-curvature="0"
       d="m 475.04147,207.35135 10,0 0.0734,0.0457 19.97679,0.002 0,10 -19.97679,-0.002 -0.0734,-0.0457 -10,0 0.0734,0.0457 -20.02321,0.002 0,-10 20.02321,-0.002 z"
       style="font-size:100px;font-style:normal;font-variant:normal;font-weight:normal;font-stretch:normal;text-align:start;line-height:125%;letter-spacing:0px;word-spacing:0px;writing-mode:lr-tb;text-anchor:start;fill:#e72c00;fill-opacity:0.47872338;stroke:none;font-family:Gill Sans Nova;-inkscape-font-specification:Gill Sans Nova"
       id="path3919-8-7-86-3"
       sodipodi:nodetypes="ccccccccccccc" />
    <path
       inkscape:connector-curvature="0"
       d="m 550.04147,207.35135 10,0 0.0633,0.0854 19.97679,0.002 0,10 -19.97679,-0.002 -0.0633,-0.0854 -10,0 0.0633,0.0854 -20.02321,0.002 0,-10 20.02321,-0.002 z"
       style="font-size:100px;font-style:normal;font-variant:normal;font-weight:normal;font-stretch:normal;text-align:start;line-height:125%;letter-spacing:0px;word-spacing:0px;writing-mode:lr-tb;text-anchor:start;fill:#e72c00;fill-opacity:0.47872338;stroke:none;font-family:Gill Sans Nova;-inkscape-font-specification:Gill Sans Nova"
       id="path3919-8-7-8-5-8"
       sodipodi:nodetypes="ccccccccccccc" />
    <path
       inkscape:connector-curvature="0"
       d="m 545.04147,202.35135 20,0 0.0502,0.0477 20,0 0,20 -20,0 -0.0502,-0.0477 -20,0 0.0502,0.0477 -20,0 0,-20 20,0 z"
       style="font-size:100px;font-style:normal;font-variant:normal;font-weight:normal;font-stretch:normal;text-align:start;line-height:125%;letter-spacing:0px;word-spacing:0px;writing-mode:lr-tb;text-anchor:start;fill:#e72c00;fill-opacity:0.47872338;stroke:none;font-family:Gill Sans Nova;-inkscape-font-specification:Gill Sans Nova"
       id="path3919-8-7-7-0-9"
       sodipodi:nodetypes="ccccccccccccc" />
    <path
       inkscape:connector-curvature="0"
       d="m 630.04147,207.35135 10,0 0.0633,0.0854 19.97679,0.002 0,10 -19.97679,-0.002 -0.0633,-0.0854 -10,0 0.0633,0.0854 -20.02321,0.002 0,-10 20.02321,-0.002 z"
       style="font-size:100px;font-style:normal;font-variant:normal;font-weight:normal;font-stretch:normal;text-align:start;line-height:125%;letter-spacing:0px;word-spacing:0px;writing-mode:lr-tb;text-anchor:start;fill:#e72c00;fill-opacity:0.47872338;stroke:none;font-family:Gill Sans Nova;-inkscape-font-specification:Gill Sans Nova"
       id="path3919-8-7-8-4-90-3"
       sodipodi:nodetypes="ccccccccccccc" />
    <path
       inkscape:connector-curvature="0"
       d="m 625.04147,202.35135 20,0 0.0502,0.0477 20,0 0,20 -20,0 -0.0502,-0.0477 -20,0 0.0502,0.0477 -20,0 0,-20 20,0 z"
       style="font-size:100px;font-style:normal;font-variant:normal;font-weight:normal;font-stretch:normal;text-align:start;line-height:125%;letter-spacing:0px;word-spacing:0px;writing-mode:lr-tb;text-anchor:start;fill:#e72c00;fill-opacity:0.47872338;stroke:none;font-family:Gill Sans Nova;-inkscape-font-specification:Gill Sans Nova"
       id="path3919-8-7-7-2-0-4"
       sodipodi:nodetypes="ccccccccccccc" />
    <path
       inkscape:connector-curvature="0"
       d="m 620.04147,197.35135 30,0 0.0502,0.0477 20,0 0,30 -20,0 -0.0502,-0.0477 -30,0 0.0502,0.0477 -20,0 0,-30 20,0 z"
       style="font-size:100px;font-style:normal;font-variant:normal;font-weight:normal;font-stretch:normal;text-align:start;line-height:125%;letter-spacing:0px;word-spacing:0px;writing-mode:lr-tb;text-anchor:start;fill:#e72c00;fill-opacity:0.47872338;stroke:none;font-family:Gill Sans Nova;-inkscape-font-specification:Gill Sans Nova"
       id="path3919-8-7-7-2-7-6-4"
       sodipodi:nodetypes="ccccccccccccc" />
    <path
       style="fill:#8c8c8c;fill-opacity:1;fill-rule:evenodd;stroke:#1d1309;stroke-width:3.44299173;stroke-linecap:round;stroke-linejoin:bevel;stroke-miterlimit:4;stroke-opacity:0;stroke-dasharray:none;stroke-dashoffset:0"
       d="m 275.93376,405.84838 c -23.92939,0 -43.3125,19.33867 -43.3125,43.21875 0,23.88008 19.38311,43.25 43.3125,43.25 23.92939,0 43.34375,-19.36992 43.34375,-43.25 0,-23.88008 -19.41436,-43.21875 -43.34375,-43.21875 z m -15.0625,28.21875 30,0 0.0625,0.0625 20,0 0,30 -20,0 -0.0625,-0.0625 -30,0 0.0625,0.0625 -20,0 0,-30 20,0 -0.0625,-0.0625 z m 5,5 0.0625,0.0625 -20,0 0,20 20,0 -0.0625,-0.0625 20,0 0.0625,0.0625 20,0 0,-20 -20,0 -0.0625,-0.0625 -20,0 z m 5,5 10,0 0.0625,0.0937 20,0 0,10 -20,0 -0.0625,-0.0937 -10,0 0.0625,0.0937 -20,0 0,-10 20,0 -0.0625,-0.0937 z"
       id="path3856-5-0-1-6-0-6"
       inkscape:connector-curvature="0" />
    <path
       style="fill:#8c8c8c;fill-opacity:1;fill-rule:evenodd;stroke:#1d1309;stroke-width:3.44299173;stroke-linecap:round;stroke-linejoin:bevel;stroke-miterlimit:4;stroke-opacity:0;stroke-dasharray:none;stroke-dashoffset:0"
       d="m 161.43232,406.35346 c -23.92939,0 -43.34375,19.33867 -43.34375,43.21875 0,23.88008 19.41436,43.25 43.34375,43.25 23.92939,0 43.3125,-19.36992 43.3125,-43.25 0,-23.88008 -19.38311,-43.21875 -43.3125,-43.21875 z m -9.90625,33.21875 20,0 0.0625,0.0625 20,0 0,20 -20,0 -0.0625,-0.0625 -20,0 0.0625,0.0625 -20,0 0,-20 20,0 -0.0625,-0.0625 z m 5,5 0.0625,0.0937 -20,0 0,10 20,0 -0.0625,-0.0937 10,0 0.0625,0.0937 20,0 0,-10 -20,0 -0.0625,-0.0937 -10,0 z"
       id="path3856-5-0-1-6-6"
       inkscape:connector-curvature="0" />
    <path
       style="fill:#8c8c8c;fill-opacity:1;fill-rule:evenodd;stroke:#1d1309;stroke-width:3.44299173;stroke-linecap:round;stroke-linejoin:bevel;stroke-miterlimit:4;stroke-opacity:0;stroke-dasharray:none;stroke-dashoffset:0"
       d="m 66.76052,409.60267 c -23.92939,0 -43.3125,19.36992 -43.3125,43.25 0,23.88008 19.38311,43.21875 43.3125,43.21875 23.92939,0 43.34375,-19.33867 43.34375,-43.21875 0,-23.88008 -19.41436,-43.25 -43.34375,-43.25 z m -5.4375,38 10,0 0.09375,0.0625 19.96875,0 0,10 -19.96875,0 -0.09375,-0.0625 -10,0 0.09375,0.0625 -20.03125,0 0,-10 20.03125,0 -0.09375,-0.0625 z"
       id="path3856-5-0-1-1"
       inkscape:connector-curvature="0" />
    <path
       style="fill:#8c8c8c;fill-opacity:1;fill-rule:evenodd;stroke:#1d1309;stroke-width:3.44299173;stroke-linecap:round;stroke-linejoin:bevel;stroke-miterlimit:4;stroke-opacity:0;stroke-dasharray:none;stroke-dashoffset:0"
       d="m 676.03486,647.55259 c -23.92939,0 -43.34375,19.36992 -43.34375,43.25 0,23.88008 19.41436,43.25 43.34375,43.25 23.92939,0 43.3125,-19.36992 43.3125,-43.25 0,-23.88008 -19.38311,-43.25 -43.3125,-43.25 z m -15.03125,8.375 30,0 0,20 20,0 0,30 -20,0 0,20 -30,0 0,-20 -20,0 0,-30 20,0 0,-20 z m 5,5 0,20 -20,0 0,20 20,0 0,20 20,0 0,-20 20,0 0,-20 -20,0 0,-20 -20,0 z m 5,5.03125 10,0 0,20 20,0 0,10 -20,0 0,20 -10,0 0,-20 -20,0 0,-10 20,0 0,-20 z"
       id="path3856-5-0-2-8"
       inkscape:connector-curvature="0" />
    <path
       style="fill:#8c8c8c;fill-opacity:1;fill-rule:evenodd;stroke:#1d1309;stroke-width:3.44299173;stroke-linecap:round;stroke-linejoin:bevel;stroke-miterlimit:4;stroke-opacity:0;stroke-dasharray:none;stroke-dashoffset:0"
       d="m 566.03487,647.55259 c -23.92939,0 -43.34375,19.36992 -43.34375,43.25 0,23.88008 19.41436,43.25 43.34375,43.25 23.92939,0 43.31249,-19.36992 43.31249,-43.25 0,-23.88008 -19.3831,-43.25 -43.31249,-43.25 z m -10.09375,13.375 20,0 0,20 19.99999,0 0,20 -19.99999,0 0,20 -20,0 0,-20 -20,0 0,-20 20,0 0,-20 z m 5,5.03125 0,20 -20,0 0,10 20,0 0,20 10,0 0,-20 20,0 0,-10 -20,0 0,-20 -10,0 z"
       id="path3856-5-8-8"
       inkscape:connector-curvature="0" />
    <path
       style="fill:#8c8c8c;fill-opacity:1;fill-rule:evenodd;stroke:#1d1309;stroke-width:3.44299173;stroke-linecap:round;stroke-linejoin:bevel;stroke-miterlimit:4;stroke-opacity:0;stroke-dasharray:none;stroke-dashoffset:0"
       d="m 471.03487,647.55259 c -23.92939,0 -43.34375,19.36992 -43.34375,43.25 0,23.88008 19.41436,43.25 43.34375,43.25 23.92939,0 43.3125,-19.36992 43.3125,-43.25 0,-23.88008 -19.38311,-43.25 -43.3125,-43.25 z m -5.03125,18.21875 10,0 0.0312,20 19.96875,0 0,10 -19.96875,0 -0.0312,20 -10,0 0.0312,-20 -20.03125,0 0,-10 20.03125,0 -0.0312,-20 z"
       id="path3856-6-2"
       inkscape:connector-curvature="0" />
    <path
       style="fill:#8c8c8c;fill-opacity:1;fill-rule:evenodd;stroke:#1d1309;stroke-width:3.44299173;stroke-linecap:round;stroke-linejoin:bevel;stroke-miterlimit:4;stroke-opacity:0;stroke-dasharray:none;stroke-dashoffset:0"
       d="m 72.380369,648.87373 c -23.92939,0 -43.3125,19.33867 -43.3125,43.21875 0,23.88008 19.38311,43.25 43.3125,43.25 23.92939,0 43.343751,-19.36992 43.343751,-43.25 0,-23.88008 -19.414361,-43.21875 -43.343751,-43.21875 z m -15.0625,28.21875 30,0 0.0625,0.0625 20.000001,0 0,30 -20.000001,0 -0.0625,-0.0625 -30,0 0.0625,0.0625 -20,0 0,-30 20,0 -0.0625,-0.0625 z m 5,5 0.0625,0.0625 -20,0 0,20 20,0 -0.0625,-0.0625 20,0 0.0625,0.0625 20.000001,0 0,-20 -20.000001,0 -0.0625,-0.0625 -20,0 z m 5,5 10,0 0.0625,0.0937 20,0 0,10 -20,0 -0.0625,-0.0937 -10,0 0.0625,0.0937 -20,0 0,-10 20,0 -0.0625,-0.0937 z"
       id="path3856-5-0-1-6-0-6-9"
       inkscape:connector-curvature="0" />
    <path
       style="fill:#8c8c8c;fill-opacity:1;fill-rule:evenodd;stroke:#1d1309;stroke-width:3.44299173;stroke-linecap:round;stroke-linejoin:bevel;stroke-miterlimit:4;stroke-opacity:0;stroke-dasharray:none;stroke-dashoffset:0"
       d="m 177.08203,645.3382 c -23.92939,0 -43.34375,19.33867 -43.34375,43.21875 0,23.88008 19.41436,43.25 43.34375,43.25 23.92939,0 43.3125,-19.36992 43.3125,-43.25 0,-23.88008 -19.38311,-43.21875 -43.3125,-43.21875 z m -9.90625,33.21875 20,0 0.0625,0.0625 20,0 0,20 -20,0 -0.0625,-0.0625 -20,0 0.0625,0.0625 -20,0 0,-20 20,0 -0.0625,-0.0625 z m 5,5 0.0625,0.0937 -20,0 0,10 20,0 -0.0625,-0.0937 10,0 0.0625,0.0937 20,0 0,-10 -20,0 -0.0625,-0.0937 -10,0 z"
       id="path3856-5-0-1-6-6-1"
       inkscape:connector-curvature="0" />
    <path
       style="fill:#8c8c8c;fill-opacity:1;fill-rule:evenodd;stroke:#1d1309;stroke-width:3.44299173;stroke-linecap:round;stroke-linejoin:bevel;stroke-miterlimit:4;stroke-opacity:0;stroke-dasharray:none;stroke-dashoffset:0"
       d="m 287.4712,648.58741 c -23.92939,0 -43.3125,19.36992 -43.3125,43.25 0,23.88008 19.38311,43.21875 43.3125,43.21875 23.92939,0 43.34375,-19.33867 43.34375,-43.21875 0,-23.88008 -19.41436,-43.25 -43.34375,-43.25 z m -5.4375,38 10,0 0.0937,0.0625 19.96875,0 0,10 -19.96875,0 -0.0937,-0.0625 -10,0 0.0937,0.0625 -20.03125,0 0,-10 20.03125,0 -0.0937,-0.0625 z"
       id="path3856-5-0-1-1-3"
       inkscape:connector-curvature="0" />
  </g>
</svg>
